<?xml version="1.0" encoding="UTF-8"?>
<svg width="1001px" height="1000px" viewBox="0 0 1001 1000" version="1.1" xmlns="http://www.w3.org/2000/svg" xmlns:xlink="http://www.w3.org/1999/xlink">
    <!-- Generator: Sketch 55.1 (78136) - https://sketchapp.com -->
    <title>编组 220</title>
    <desc>Created with Sketch.</desc>
    <defs>
        <polygon id="path-1" points="0.0870956594 0.383504273 818.703574 0.383504273 818.703574 818.962369 0.0870956594 818.962369"></polygon>
        <linearGradient x1="89.1873649%" y1="34.9753118%" x2="18.188908%" y2="103.942578%" id="linearGradient-3">
            <stop stop-color="#28C4FF" offset="0%"></stop>
            <stop stop-color="#34EDCB" offset="100%"></stop>
        </linearGradient>
        <linearGradient x1="87.9563332%" y1="58.5144799%" x2="-5.50592975%" y2="43.7718148%" id="linearGradient-4">
            <stop stop-color="#111049" offset="0%"></stop>
            <stop stop-color="#14154E" offset="29%"></stop>
            <stop stop-color="#1B255B" offset="66%"></stop>
            <stop stop-color="#253A6C" offset="100%"></stop>
        </linearGradient>
        <linearGradient x1="100%" y1="71.9584606%" x2="8.58453665%" y2="18.1286588%" id="linearGradient-5">
            <stop stop-color="#FF7F31" offset="0%"></stop>
            <stop stop-color="#FFD25F" offset="100%"></stop>
        </linearGradient>
        <linearGradient x1="100%" y1="72.0148728%" x2="8.58453665%" y2="18.04678%" id="linearGradient-6">
            <stop stop-color="#FF6609" offset="0%"></stop>
            <stop stop-color="#FFD25F" offset="100%"></stop>
        </linearGradient>
    </defs>
    <g id="1000个上传" stroke="none" stroke-width="1" fill="none" fill-rule="evenodd">
        <g id="10" transform="translate(-7586.000000, -1558.000000)">
            <g id="编组-220" transform="translate(7587.000000, 1558.000000)">
                <rect id="矩形备份-123" x="0" y="0" width="1000" height="1000"></rect>
                <g id="编组-76" transform="translate(112.000000, 104.000000)">
                    <g id="BG">
                        <g id="Group-3" transform="translate(0.000000, 0.814888)">
                            <mask id="mask-2" fill="white">
                                <use xlink:href="#path-1"></use>
                            </mask>
                            <g id="Clip-2"></g>
                            <path d="M818.703574,409.673073 C818.703574,635.717738 635.449931,818.962369 409.394993,818.962369 C183.340738,818.962369 0.0870956594,635.717738 0.0870956594,409.673073 C0.0870956594,183.628409 183.340738,0.383094108 409.394993,0.383094108 C635.449931,0.383094108 818.703574,183.628409 818.703574,409.673073" id="Fill-1" fill="#E8F6FF" mask="url(#mask-2)"></path>
                        </g>
                        <path d="M739.544776,410.296278 C739.544776,592.567079 591.779085,740.326055 409.5,740.326055 C227.221599,740.326055 79.4552239,592.567079 79.4552239,410.296278 C79.4552239,228.025477 227.221599,80.2665012 409.5,80.2665012 C591.779085,80.2665012 739.544776,228.025477 739.544776,410.296278" id="Fill-4" fill="#D6EEFF"></path>
                        <path d="M656.014925,409.278009 C656.014925,545.980161 545.190049,656.8 408.481002,656.8 C271.772637,656.8 160.947761,545.980161 160.947761,409.278009 C160.947761,272.575174 271.772637,161.755335 408.481002,161.755335 C545.190049,161.755335 656.014925,272.575174 656.014925,409.278009" id="Fill-6" fill="#C7E9FD"></path>
                        <path d="M580.634328,410.296278 C580.634328,504.806407 504.014272,581.422829 409.499659,581.422829 C314.985047,581.422829 238.365672,504.806407 238.365672,410.296278 C238.365672,315.786149 314.985047,239.169727 409.499659,239.169727 C504.014272,239.169727 580.634328,315.786149 580.634328,410.296278" id="Fill-8" fill="#BBE0FF"></path>
                        <path d="M513.402985,409.277667 C513.402985,467.221506 466.428497,514.194541 408.481343,514.194541 C350.534871,514.194541 303.559701,467.221506 303.559701,409.277667 C303.559701,351.333829 350.534871,304.360794 408.481343,304.360794 C466.428497,304.360794 513.402985,351.333829 513.402985,409.277667" id="Fill-10" fill="#AAD5FF"></path>
                    </g>
                    <g id="资源-2" transform="translate(222.000000, 27.000000)" fill-rule="nonzero">
                        <path d="M175.586518,669.847645 L185.450237,681.606868 L175.808452,731.752806 C174.896058,736.491597 168.706575,735.889846 167.572247,730.950471 L163.380167,687.900183 L156.919431,681.45643 L175.586518,669.847645 Z" id="路径" fill="#111049"></path>
                        <path d="M252.166967,373.957834 C267.581085,422.810455 256.051623,539.747835 241.035931,585.710652 C314.321475,553.499312 397.393365,575.745814 397.393365,575.745814 L396.646316,636.979746 L235.73188,636.780449 C215.456982,636.693374 198.917383,620.510857 198.379412,600.234404 L190.709705,454.174784 C190.709705,454.174784 129.924788,520.391136 109.306225,556.538587 C157.092483,606.661725 180.549833,676.116649 180.549833,676.116649 L136.498822,702.423823 L68.094001,570.215328 C61.3899574,556.421742 61.5466985,540.279851 68.517329,526.61916 L155.673089,358.33795 L252.166967,373.957834 Z" id="路径" fill="url(#linearGradient-3)"></path>
                        <path d="M395.7307,572.119114 L398.607613,572.269469 C402.595868,572.4871 406.12002,574.940753 407.713667,578.60946 L429.753321,628.727966 C430.339984,630.14441 429.852428,631.778821 428.586145,632.640633 C427.319861,633.502444 425.623362,633.354465 424.524844,632.28638 L395.35545,602.816699 L395.7307,572.119114 Z" id="路径" fill="#111049"></path>
                        <path d="M186.941152,125.543936 C186.941152,125.543936 168.172471,85.1290532 199.56062,62.6707519 C230.948769,40.2124506 243.741107,74.1136714 269.004739,73.3591932 C267.996563,82.712959 263.45286,91.2998282 256.33588,97.3013016 C256.33588,97.3013016 266.387002,95.6917481 268.930652,91.0391325 C268.930652,91.0391325 273.425258,130.297149 203.240269,144.556787 L186.941152,125.543936 Z" id="路径" fill="url(#linearGradient-4)"></path>
                        <path d="M271.718945,184.604461 C259.711215,153.623724 211.779941,148.843982 211.779941,148.843982 C211.779941,148.843982 162.204455,133.153414 150.121987,161.806842 L71.2247193,243.863253 L25.1369561,150.345471 L10.1895735,149.844975 C10.1895735,149.844975 24.6137977,286.405461 58.6689179,295.689672 C92.724038,304.973883 151.66655,243.763154 151.66655,243.763154 L138.786889,359.452934 C138.786889,359.452934 178.397453,402.570712 264.494377,393.812022 C264.494377,393.812022 264.494377,315.284112 264.494377,296.390367 C264.394728,296.390367 282.431236,212.256896 271.718945,184.604461 Z" id="路径" fill="url(#linearGradient-5)"></path>
                        <path d="M236.506971,116.11915 C238.884395,113.759166 242.093917,113.357968 243.639242,115.057157 C245.184567,116.756346 244.756631,119.942326 242.402982,122.137111 C240.049332,124.331897 236.816036,124.898293 235.270711,123.222704 C233.725385,121.547115 234.153321,118.337536 236.506971,116.11915 Z" id="路径" fill="#F9BC9B"></path>
                        <path d="M227.923643,154.57393 C226.694555,163.054247 209.782304,163.611163 211.478446,152.042492 C213.174587,140.473821 209.905213,124.196676 209.905213,124.196676 L226.374992,126.728114 C226.374992,126.728114 229.177312,146.093613 227.923643,154.57393 Z" id="路径" fill="#F9BC9B"></path>
                        <path d="M195.471898,85.5124654 C197.246978,94.4092831 208.7725,91.4601987 225.473255,96.6892475 C236.073735,100.010065 239.49889,104.52043 240.473934,108.039505 C240.435965,109.84689 240.294062,111.650659 240.048914,113.44203 C236.998776,132.821727 222.0481,146.749336 206.597401,144.271114 C191.146702,141.792892 180.971242,124.445336 183.921375,105.016074 C185.396442,95.4501364 189.671635,89.155452 195.471898,85.5124654 Z" id="路径" fill="#F9BC9B"></path>
                        <path d="M228.191682,118.147367 C227.764378,120.904199 224.274724,122.645356 220.357766,122.040788 C216.440808,121.436219 213.61585,118.727753 214.019415,115.970921 C214.422981,113.214089 217.936374,111.497115 221.829593,112.101683 C225.722812,112.706252 228.690204,115.414718 228.191682,118.147367 Z" id="路径" fill="#EF998F"></path>
                        <path d="M197.639301,112.009863 C197.235199,114.763346 193.71713,116.542145 189.913812,115.932967 C186.110494,115.323789 183.044068,112.594674 183.448171,109.889925 C183.852273,107.185176 187.370343,105.38201 191.292514,105.991188 C195.214686,106.600365 198.043404,109.25638 197.639301,112.009863 Z" id="路径" fill="#EF998F"></path>
                        <path d="M27.4047208,148.628809 L30.5687204,139.125783 L22.596438,135.531374 C16.494863,127.508738 12.862049,117.918516 12.1328173,107.908587 C8.19644145,112.434827 6.09335324,118.239918 6.22834564,124.206524 L0,115.737505 C1.58033822,127.30844 5.84332279,138.362442 12.4566913,148.037947 L27.4047208,148.628809 Z" id="路径" fill="#F9BC9B"></path>
                        <path d="M14.3677641,82.379486 C18.0453763,76.8783312 23.7705496,73.0550444 30.2836799,71.7507928 C36.7968102,70.4465412 43.564314,71.7681746 49.0972627,75.4249185 L49.0972627,75.4249185 C51.9051796,77.3104879 53.2598764,81.1550903 52.9396753,86.2240884 C52.3058264,92.5157143 50.049085,98.5381303 46.3878692,103.708459 C42.9810783,108.97827 38.275271,113.294291 32.7177474,116.246271 C28.1364093,118.474671 24.072319,118.695062 21.2644021,116.83398 C9.83377996,109.184048 6.75388266,93.7973761 14.3677641,82.379486 L14.3677641,82.379486 Z" id="路径" fill="#01C5F9"></path>
                        <polygon id="路径" fill="#CACACA" points="143.683175 110.962604 143.683175 110.962604 143.662796 110.962604"></polygon>
                        <path d="M81.5167243,159.969251 C81.5167243,169.888894 85.1516484,176.659051 90.9523697,179.634944 L101.159648,185.31394 L101.159648,185.31394 C106.661619,188.463426 114.254838,187.992243 122.669619,183.181216 C139.399596,173.559162 152.89312,150.248 152.843465,131.103089 C152.843465,121.183445 149.208541,114.462887 143.457611,111.437396 L133.300125,105.807998 L132.901792,105.584806 L132.752418,105.584806 L132.752418,105.584806 C127.300237,102.70811 119.881289,103.278489 111.715467,108.064717 C94.9605935,117.513177 81.46707,140.824339 81.5167243,159.969251 Z M126.976592,111.61099 L126.329301,111.88378 L126.976592,111.61099 Z M128.445444,111.065409 L127.897737,111.263802 L128.445444,111.065409 Z M129.864505,110.594226 L129.41638,110.743021 L129.864505,110.594226 Z M131.283565,110.247039 L130.885233,110.247039 L131.283565,110.247039 Z M132.652834,109.974248 L132.354085,109.974248 L132.652834,109.974248 Z M122.345973,113.81811 L123.864617,112.97494 L122.345973,113.81811 Z M124.561699,112.652552 L125.383261,112.230967 L124.561699,112.652552 Z" id="形状" fill="#013AAE"></path>
                        <path d="M29.456054,9.03761025 C35.4354131,7.14889239 42.4239467,8.2569402 49.6395446,12.3365708 L93.5638661,37.3683781 C109.6602,46.5853212 122.274882,68.4188996 122.274882,86.9031517 L122.274882,136.412742 L118.490477,136.412742 L118.490477,82.8235211 C118.490477,68.2678022 107.793227,49.8842817 95.1280866,42.681971 L51.2037651,17.4990662 C24.2840345,2.16267725 26.2014661,33.3894791 26.2014661,33.3894791 L26.2014661,86.6009568 L22.4170616,86.6009568 L22.4170616,28.126252 C22.4170616,19.8662593 24.8895392,13.2683382 29.456054,9.03761025 Z" id="路径" fill="#FEA972"></path>
                        <path d="M94.5444258,36.5042126 L50.710619,11.7685697 C43.5854223,7.73720737 36.6364673,6.64226945 30.5687204,8.48375595 C31.3559868,7.78845282 32.1978794,7.15604585 33.0864577,6.59249955 L33.0864577,6.59249955 L40.186477,2.48648236 C46.8584809,-1.32091539 55.2929009,-0.748561478 63.9539173,4.15377419 L107.787724,28.8894171 C123.901243,37.9973098 136.540284,59.4979088 136.540284,77.8381189 L136.540284,130.793298 L130.271118,130.793298 L130.271118,134.376731 L123.271809,134.376731 L123.271809,85.4529144 C123.271809,67.1873592 110.683122,45.6121053 94.5444258,36.5042126 Z" id="路径" fill="#F9BC9B"></path>
                        <path d="M42.7962085,12.8882455 C42.3973126,13.1050533 42.0343696,13.3859458 41.7209788,13.7203981 C40.1183191,16.607339 39.338965,19.9028957 39.4727712,23.2271102 L39.4727712,81.8812544 L33.3146373,81.8812544 L33.3146373,85.5124654 L26.5211404,85.5124654 L26.5211404,32.3555711 C26.5211404,32.3555711 25.0793551,7.89533043 42.7962085,12.8882455 Z" id="路径" fill="#F38307"></path>
                        <path d="M6.11388148,117.242108 C6.11388148,127.159059 9.77496251,133.902586 15.5527771,136.902464 L25.7884745,142.579919 C31.292341,145.703759 38.8632705,145.232704 47.2560442,140.39819 C63.9917831,130.778747 77.5148577,107.47391 77.4404527,88.3341935 C77.4404527,78.4172418 73.8041061,71.6985071 68.0511959,68.6986292 L68.0511959,68.6986292 L57.915116,63.0955515 L57.5415504,62.9715896 L57.3921242,62.9715896 L57.3921242,62.9715896 C51.8633533,59.922127 44.3920413,60.4923517 36.3230244,65.1781114 C19.4876681,74.7975545 6.0642109,98.1023908 6.11388148,117.242108 Z" id="形状" fill="#013AAE"></path>
                        <path d="M47.9424105,118.60111 C41.8239923,122.136107 36.6824645,119.313195 36.6824645,112.268632 C37.1019112,104.490829 41.2590143,97.3814534 47.8652876,93.1440428 C54.0351211,89.6090456 59.0738184,92.4319571 59.0995261,99.47652 C58.6858791,107.249587 54.5388861,114.358014 47.9424105,118.60111 L47.9424105,118.60111 Z" id="路径" fill="#111049"></path>
                        <path d="M124.386029,174.305856 C113.121364,180.870774 103.958134,175.613904 103.933649,162.558108 C103.909263,149.502312 112.974753,133.58362 124.239417,127.018701 C135.504082,120.453783 144.642877,125.735334 144.691943,138.79113 C144.740618,151.846926 135.626258,167.740938 124.386029,174.305856 Z" id="路径" fill="#FFFFFF"></path>
                        <path d="M126.424016,174.304809 C115.159392,180.872158 106.02063,175.613341 105.971564,162.55271 C105.922889,149.492079 115.037216,133.59218 126.277405,127.024831 C137.517594,120.457482 146.680792,125.716299 146.729858,138.77693 C146.778533,151.837561 137.664205,167.73746 126.424016,174.304809 Z" id="路径" fill="#FEFC0C"></path>
                        <path d="M149.83078,163.675155 C143.142758,176.07369 127.595056,180.74917 115.096051,174.120527 L115.096051,174.120527 C112.041616,172.467302 110.274587,168.709974 110.047393,163.499813 C110.044189,157.051837 111.713284,150.711541 114.894104,145.088905 C117.794237,139.352229 122.142731,134.459013 127.515736,130.886205 C131.933307,128.15588 136.073202,127.529659 139.127637,129.157835 C145.172054,132.314487 149.699572,137.731189 151.708304,144.209288 C153.717035,150.687388 153.041354,157.692744 149.83078,163.675155 L149.83078,163.675155 Z" id="路径" fill="#01C5F9"></path>
                        <path d="M254.738205,200.983103 C219.67494,183.809362 220.150799,255.441938 182.357609,276.909113 C144.564418,298.376289 133.294083,176.05105 133.294083,176.05105 L116.238309,175.096953 C116.238309,175.096953 112.030717,306.310356 165.752648,319.768141 C219.474579,333.225926 257.593357,271.586258 257.593357,271.586258 C257.593357,271.586258 289.676244,218.156843 254.738205,200.983103 Z" id="路径" fill="url(#linearGradient-6)"></path>
                        <path d="M118.547834,174.857598 C118.547834,174.857598 109.634818,160.350718 112.743444,152.837786 C115.765673,146.38176 119.332936,140.204889 123.405064,134.376731 C123.405064,134.376731 130.205185,160.326005 134.722409,160.523713 C139.239632,160.721422 143.149702,147.203086 146.282615,149.130747 C149.415528,151.058407 135.062415,175.796714 135.062415,175.796714 C135.062415,175.796714 129.452314,179.355472 118.547834,174.857598 Z" id="路径" fill="#F9BC9B"></path>
                    </g>
                </g>
            </g>
        </g>
    </g>
</svg>